<svg xmlns="http://www.w3.org/2000/svg" xml:space="preserve" viewBox="0 0 614 767"><path fill-opacity="0" d="M310 768H1V1h614v767H310M184.26 96.622c-.593.297-1.204.564-1.777.895-56.204 32.467-112.42 64.912-168.532 97.536-1.669.97-3.189 3.818-3.193 5.793-.086 43.122.041 86.243.194 129.365.006 1.756.66 3.51.74 6.244.002 4.662.03 9.324.004 13.986-.32 58.446-.608 116.893-1.066 175.339-.03 3.897 1.246 5.91 4.602 7.762 17.193 9.485 34.216 19.277 51.338 28.891 17.69 9.932 35.427 19.783 53.512 30.267 58.39 33.67 116.786 67.329 175.146 101.048 2.76 1.595 4.924 2.38 8.161.547 45.764-25.91 91.622-51.653 138.14-77.19l147.393 79.488c0-2.79-.005-4.404 0-6.018.269-90.085.557-180.17.797-270.256.072-26.978.023-53.957-.014-80.935-.003-1.787-.38-3.573-.496-6.304-.04-43.791-.123-87.582-.045-131.372.006-3.689-1.328-5.615-4.458-7.416-27.828-16.015-55.532-32.249-83.324-48.327-11.94-6.907-24.005-13.6-36.4-20.924-.38-.32-.72-.706-1.144-.948C409.916 93.275 356 62.445 301.993 31.777c-1.575-.894-4.576-.846-6.156.068-37.014 21.418-73.924 43.015-111.576 64.777z"/><path fill="#F3D252" d="M589.124 334.024c.202 1.787.578 3.573.58 5.36.038 26.978.087 53.957.015 80.935-.24 90.086-.528 180.17-.797 270.256-.005 1.614 0 3.229 0 6.018-49.742-26.825-98.567-53.156-147.946-79.855-7.395-4.13-14.076-8.24-21.14-11.527-4.237-1.972-5.093-4.62-5.08-8.907.174-53.373.174-106.747.183-160.121 0-2.13-.357-4.26-.49-6.767.174-2.363.402-4.349.387-6.333-.17-22.141-.487-44.282-.542-66.423-.051-20.472.168-40.945.634-61.395 1.72.66 3.133 1.197 4.42 1.948 25.527 14.905 51.04 29.833 76.555 44.76 23.363 13.668 46.721 27.345 70.089 41.007 7.372 4.31 14.766 8.583 23.132 13.444v-62.4z"/><path fill="#C6227E" d="M414.39 429.794c.192 2.13.55 4.26.55 6.389-.01 53.374-.01 106.748-.184 160.121-.013 4.286.843 6.935 5.08 8.907 7.064 3.288 13.745 7.396 20.8 11.404-45.625 26.027-91.483 51.77-137.247 77.68-3.237 1.833-5.401 1.048-8.16-.547-58.361-33.72-116.758-67.378-174.935-101.375 1.316-.654 2.522-.795 3.51-1.335a31212.272 31212.272 0 0 0 62.065-34c33.634-18.466 67.284-36.906 100.862-55.475 3.64-2.013 6.85-4.805 10.595-7.383 8.075-4.37 15.83-8.566 23.55-12.82 31.178-17.179 62.344-34.376 93.515-51.566z"/><path fill="#FBA44A" d="M589.167 333.552c-.043 20.907-.043 41.34-.043 62.872-8.366-4.86-15.76-9.134-23.132-13.444-23.368-13.662-46.726-27.339-70.09-41.007-25.514-14.927-51.027-29.855-76.554-44.76-1.287-.751-2.7-1.289-4.736-2.047-7.721-4.213-14.773-8.284-21.799-12.4-31.117-18.229-62.226-36.471-93.179-55.043 1.958-1.532 3.72-2.79 5.56-3.918 53.386-32.751 106.781-65.49 160.174-98.23 12.009 6.79 24.073 13.483 36.014 20.39 27.792 16.078 55.496 32.312 83.324 48.327 3.13 1.8 4.464 3.727 4.458 7.416-.078 43.79.005 87.581.003 131.844z"/><path fill="#0177BC" d="M11.965 335.475c-.352-1.754-1.007-3.508-1.013-5.264-.153-43.122-.28-86.243-.194-129.365.004-1.975 1.524-4.822 3.193-5.793 56.112-32.624 112.328-65.07 168.532-97.536.573-.331 1.184-.598 2.164-.483.053 111.603-.281 222.793-.967 333.926-47.251-26.336-94.137-52.64-141.062-78.873-10.143-5.67-20.431-11.081-30.653-16.612z"/><path fill="#4891D2" d="M184.032 431.017c.334-111.19.668-222.38.977-334.082 36.904-22.075 73.814-43.672 110.828-65.09 1.58-.914 4.581-.962 6.156-.068C356 62.445 409.916 93.275 463.838 124.093c.424.242.765.628 1.337 1.215-53.2 33.007-106.595 65.746-159.982 98.497-1.84 1.129-3.6 2.386-5.875 3.921-37.387 22.9-74.314 45.435-111.142 68.132-1.299.8-2.273 3.208-2.278 4.87-.117 43.64-.086 87.279-.342 130.953-.682-.198-1.103-.431-1.524-.664z"/><path fill="#E62482" d="M183.68 430.96c.773.29 1.194.523 2.194.923 37.424 20.926 74.27 41.686 111.116 62.445-3.41 2.43-6.62 5.222-10.26 7.235-33.577 18.569-67.227 37.009-100.861 55.475a31212.272 31212.272 0 0 1-62.065 34c-.988.54-2.194.681-3.695 1.036-18.112-9.858-35.848-19.709-53.539-29.641-17.122-9.614-34.145-19.406-51.338-28.891-3.356-1.851-4.632-3.865-4.602-7.762.458-58.446.745-116.893 1.066-175.34.025-4.661-.002-9.323.132-14.475 10.359 5.04 20.647 10.452 30.79 16.122 46.925 26.232 93.81 52.537 141.062 78.873z"/><path fill-opacity="0" d="M297.326 494.18c-37.182-20.611-74.028-41.37-111.191-62.332-.323-43.841-.354-87.48-.237-131.12.005-1.662.98-4.07 2.278-4.87 36.828-22.697 73.755-45.233 110.982-67.798 31.429 18.235 62.538 36.477 93.655 54.706a2030.893 2030.893 0 0 0 21.433 12.378c.216 20.57-.003 41.044.048 61.516.055 22.141.372 44.282.542 66.423.015 1.984-.213 3.97-.387 6.333-31.229 17.568-62.395 34.765-93.572 51.944-7.722 4.254-15.476 8.45-23.551 12.82z"/></svg>