<svg xmlns="http://www.w3.org/2000/svg" xml:space="preserve" viewBox="0 0 1230 1165"><path fill="#FFF" d="M704 1166c-233.167 0-465.833-.01-698.5.094-3.75.001-4.594-.845-4.593-4.594.1-385.333.1-770.667 0-1156C.906 1.75 1.751.906 5.5.907c407 .099 814 .099 1221 0 3.749 0 4.594.844 4.593 4.593-.1 385.333-.1 770.667 0 1156 .001 3.749-.844 4.596-4.593 4.594-174-.108-348-.094-522.5-.094z"/><path fill="#F3D251" d="M819.21 755.865c-.164 42.469.659 84.44 1.605 126.409.094 4.185-.627 6.755-4.838 9.014-55.4 29.727-110.655 59.724-165.953 89.64-5.932 3.209-5.962 3.17-5.96-3.546.046-151.826.094-303.653.23-455.941 5.055-4.727 11.032-7.383 16.606-10.645 38.347-22.44 76.737-44.805 115.062-67.283 12.488-7.325 25.009-14.594 37.52-21.881 1.879-1.095 4.04-3.586 6.577-.129.56 2.205.538 4.037.538 5.863.018 40.037.015 80.074.004 120.112 0 1.828-.035 3.655-.354 5.959-.787 2.241-.609 4.082-.61 5.905-.048 63.36-.011 126.72-.024 190.079 0 1.99.211 3.994-.403 6.444zM587.682 520.701c.107 33.329.4 66.32-.032 99.3-.848 64.8-.227 129.599-.562 194.397-.033 6.234-.037 6.263-5.64 3.23-46.353-25.09-92.699-50.19-139.05-75.281-.874-.473-1.796-.858-3.049-1.344-7.39-1.627-12.828-6.48-19.264-9.305-2.367-1.04-4.65-2.455-6.929-4.501-.623-.776-.896-1.286-1.243-2.277-.58-2.585-.518-4.757-.518-6.92-.015-52.817-.004-105.634-.014-158.45 0-1.501.069-2.997.121-4.985-.1-44.548-.315-88.604.16-133.087.914-3.776 3.087-2.848 5.113-1.895 4.83 2.272 9.272 5.25 13.861 7.946 51.818 30.449 103.797 60.62 155.912 91.277.547.668.786 1.101 1.134 1.895z"/><path fill="#C6217E" d="M412.66 553.927c.38 10.332.475 20.494.473 30.656-.007 46.824-.04 93.647-.024 140.937.16.644.28.82.65 1.199 8.449 4.69 16.647 9.179 25.041 13.946-19.867 11.627-39.915 23.004-59.998 34.319-25.582 14.413-51.212 28.741-76.761 43.213-2.71 1.535-4.678 1.886-7.652.162-57.998-33.602-116.086-67.05-174.366-100.795-.812-2.753 1.225-3.41 2.733-4.236 17.23-9.435 34.435-18.915 51.633-28.408 21.861-12.068 43.767-24.052 65.653-36.073a15974.86 15974.86 0 0 1 47.762-26.114c2.34-1.276 4.758-2.407 7.075-4.406 8.681-6.298 18.108-10.59 27.112-15.595 25.462-14.15 51.026-28.117 76.546-42.164 4.486-2.469 8.792-5.367 14.124-6.641zM819.42 756.454c-1.728-1.203-1.4-2.79-1.401-4.246-.03-65.342-.046-130.684-.054-196.027 0-.49.145-.98.478-1.793 7.72 1.773 13.946 6.356 20.633 9.97 23.393 12.638 46.608 25.605 69.947 38.345 9.037 4.933 18.254 9.569 27.236 15.355 10.461 6.912 21.396 12.252 32.021 18.122a21717.046 21717.046 0 0 0 79.194 43.534c18.834 10.303 37.63 20.677 56.479 30.954 3.091 1.686 6.942 2.572 8.264 6.727a9101.221 9101.221 0 0 1-66.986 39.046c-35.666 20.6-71.378 41.12-107.01 61.778-3.076 1.783-5.18 2.073-8.633.109-36.517-20.772-73.215-41.227-110.168-61.874z"/><path fill="#0077BC" d="M10.31 459.42c-1.48-1.917-1.058-3.816-1.062-5.61-.096-42.777-.133-85.554-.321-128.331-.014-3.213.856-5.002 3.731-6.655 45.088-25.915 90.097-51.968 135.127-77.985 11.46-6.62 22.928-13.225 34.739-19.904 2.666.11 2.636 2.012 2.905 3.576.31 1.807.193 3.656.193 5.487.005 61.633 0 123.265.007 184.897 0 1.667-.04 3.33-.132 5.487.1 44.627.337 88.761-.18 133.321-1.377 4.299-3.844 2.822-6.02 1.576-10.681-6.115-21.462-12.053-32.2-18.065-32.357-18.118-64.652-36.344-97.068-54.357-11.483-6.381-22.873-12.93-34.353-19.319-1.857-1.034-3.927-1.887-5.366-4.119zM1047.674 221.227c6.157 1.317 10.922 5.035 16.05 7.999 35.872 20.73 71.636 41.647 107.487 62.413 16.06 9.302 32.238 18.399 48.37 27.574 2.062 1.173 3.528 2.264 3.513 5.243-.218 43.969-.253 87.939-.356 131.908-.001.804-.296 1.607-.667 2.729-.78 2.342-2.6 2.951-4.18 3.828-26.046 14.456-51.987 29.099-77.959 43.687-28.44 15.976-56.93 31.863-85.356 47.861-2.158 1.215-4.684 3.957-7.598.231-.527-1.872-.567-3.373-.567-4.87-.001-42.623-.102-85.246.076-128.362-.297-21.441-.08-42.39-.1-63.338-.04-42.73-.02-85.46.005-128.191.001-2.803-.368-5.675 1.282-8.712z"/><path fill="#FBA449" d="M819.395 420.134c-17.164 9.623-33.999 19.312-50.782 29.091-23.526 13.709-47.016 27.48-70.516 41.232-17.052 9.979-34.094 19.975-51.153 29.94-.548.32-1.247.383-2.218.574-.394-16.467-.486-32.943-.487-49.419-.003-28.965.008-57.93.095-86.896.06-19.639.34-39.277.316-58.915-.004-3.267 1.051-5.092 3.851-6.708 39.703-22.926 79.346-45.955 119.355-69.052 3.81-.22 6.199 2.137 8.83 3.75 45.221 27.714 90.422 55.463 135.65 83.167 6.098 3.734 12.192 7.472 18.304 11.182 1.664 1.01 3.627 1.848 3.863 4.549-4.072 4.493-9.395 6.633-14.226 9.446-29.022 16.894-57.914 34.011-86.979 50.83-4.44 2.569-8.626 5.648-13.903 7.229zM587.206 520.196c-16.33-9.486-32.458-18.734-48.532-28.074a29567.997 29567.997 0 0 1-69.68-40.64c-16.19-9.468-32.338-19.008-48.525-28.48-2.292-1.341-4.698-2.484-7.408-3.772-2.388.94-3.862-.424-5.395-1.316-34.824-20.26-69.543-40.7-104.343-61.002-1.99-1.16-4.186-2.105-5.718-4.426.014-2.794 2.04-3.544 3.705-4.558 38.196-23.266 76.22-46.81 114.386-70.125 13.904-8.494 27.8-17.001 41.67-25.552 1.842-1.135 3.642-2.354 6.26-2.472a7800.674 7800.674 0 0 1 59.113 33.835c20.142 11.643 40.205 23.422 60.393 34.984 2.953 1.69 4.207 3.516 4.211 7.02.07 64.446.273 128.892.422 193.798-.128.632-.23.804-.559.78z"/><path fill="#4791D2" d="M463.82 249.531c-34.572 21.522-69.321 42.745-104.053 63.996-20.558 12.578-41.088 25.2-61.819 38.095-4.69 5.429-11.01 7.96-16.623 11.412-30.372 18.678-60.816 37.241-91.154 55.975-1.697 1.047-3.348 2.221-5.797 2.171-.361-64.693-.376-129.256-.42-193.818 0-1.97.417-3.996-.766-6.202 36.271-21.618 72.89-42.89 109.395-64.357 3.412-2.007 5.712-2.111 9.238-.085 53.877 30.958 107.866 61.72 162 92.813zM934.108 352.745c-6.41-5.727-13.959-9.563-21.122-13.971-48.038-29.563-96.148-59.009-144.506-88.689 21.58-12.795 43.404-25.441 65.29-37.98 32.001-18.336 64.08-36.537 96.026-54.967 3.603-2.079 6.26-2.123 9.872.003 35.934 21.154 71.977 42.124 108.166 63.43.178 66.724.18 133.163.133 200.077-2.325 1.665-3.877-.084-5.465-1.057-26.388-16.18-52.82-32.292-79.162-48.547-9.764-6.024-19.602-11.929-29.232-18.299z"/><path fill="#E62382" d="M1047.952 555.777c2.148.303 3.37-.973 4.782-1.764 56.15-31.43 112.294-62.874 168.782-94.46.387 6.017.436 12.175.473 18.334.336 57.106.608 114.213 1.12 171.318.042 4.676-1.538 6.942-5.516 9.167-35.05 19.608-69.958 39.469-105.24 59.295-2.25-3.13-5.718-4.136-8.68-5.774a25913.603 25913.603 0 0 0-79.326-43.691c-18.618-10.211-37.315-20.278-55.925-30.502-10.745-5.904-21.389-11.991-32.25-18.286 1.395-3.608 4.825-4.537 7.636-6.115 31.205-17.52 62.406-35.05 93.57-52.645 3.311-1.87 6.495-4.05 10.574-4.877zM10.073 459.56c47.371 26.043 94.693 52.553 142.027 79.04a2087.783 2087.783 0 0 0 31.217 17.13c2.938-.698 4.732 1.064 6.709 2.17 33.765 18.894 67.445 37.94 101.21 56.837 1.587.888 3.328 1.564 4.475 3.576-3.583 5.16-9.531 6.562-14.48 9.38-18.593 10.584-37.535 20.553-56.29 30.856-25.582 14.052-51.105 28.21-76.668 42.296-7.845 4.323-15.743 8.553-23.608 12.84-1.584.863-3.457 1.297-4.689 3.286-18.55-9.967-36.95-20.237-55.315-30.565-17.219-9.683-34.353-19.517-51.646-29.063-3.05-1.684-4.11-3.5-4.086-6.957.446-63.455.758-126.912 1.144-190.827z"/><path fill="#FCC78F" d="M587.078 520.206c-.099-.207.28-.276.47-.303.25.164.307.355.32.844-.319.147-.535-.063-.79-.541z"/><path fill="#FFF" d="M1048.278 555.483c-37.206 21.44-74.414 42.413-111.95 63.514-28.4-15.328-56.475-30.776-84.542-46.242-10.908-6.01-21.794-12.06-32.889-18.39-.091-38.851.016-77.404.122-115.956.016-5.817.023-11.633.028-17.916 29.028-17.494 58.058-34.527 87.096-51.548 9.156-5.368 18.331-10.705 27.798-16.3 10.503 4.588 19.69 11.138 29.298 16.97 28.052 17.028 56.006 34.216 84.34 51.425.432 2.075.604 4.067.606 6.06.042 42.64.065 85.279.093 128.383zM296.095 618.406c-37.402-20.631-74.575-41.504-112.098-62.523-.3-41.409-.25-82.671-.196-123.934.004-3.327.046-6.654.15-10.44 29.405-18.373 58.727-36.289 88.053-54.197 8.357-5.103 16.726-10.186 25.423-15.337 15.473 8.905 30.582 17.922 45.76 26.822a14613.454 14613.454 0 0 0 69.188 40.296c.418 4.58.575 9.074.582 13.57.064 40.162.101 80.326.09 120.962-38.946 21.828-77.834 43.183-116.952 64.78z"/><path fill="#EAAE5A" d="M413.91 726.727c-.187.051-.474-.09-.76-.486.267-.128.487.055.76.486z"/></svg>