<?xml version="1.0" encoding="utf-8"?>
<!-- Generator: Adobe Illustrator 24.1.1, SVG Export Plug-In . SVG Version: 6.00 Build 0)  -->
<svg version="1.1" id="Layer_1" xmlns="http://www.w3.org/2000/svg" xmlns:xlink="http://www.w3.org/1999/xlink" x="0px" y="0px"
	 viewBox="0 0 512 512" style="enable-background:new 0 0 512 512;" xml:space="preserve">
<g>
	<path d="M0,0v512h512V0H0z M477.9,477.9H34.1V34.1h443.7V477.9z"/>
	<polygon points="221.9,375.5 187.7,375.5 187.7,273.1 324.3,273.1 324.3,375.5 290.1,375.5 290.1,409.6 426.7,409.6 426.7,375.5 
		392.5,375.5 392.5,136.5 426.7,136.5 426.7,102.4 290.1,102.4 290.1,136.5 324.3,136.5 324.3,238.9 187.7,238.9 187.7,136.5 
		221.9,136.5 221.9,102.4 85.3,102.4 85.3,136.5 119.5,136.5 119.5,375.5 85.3,375.5 85.3,409.6 221.9,409.6 	"/>
</g>
</svg>
