<svg xmlns="http://www.w3.org/2000/svg" xml:space="preserve" viewBox="0 0 617 1097"><path fill-opacity="0" d="M268 1098H1V1h617v1097H268M148.85 230.284c-2.588 1.482-5.184 2.952-7.764 4.449C103.92 256.305 66.76 277.89 29.58 299.438c-2.675 1.55-3.98 3.443-3.97 6.776.05 15.327-.276 30.654-.312 45.981-.09 38.832-.135 77.664-.115 116.496.005 10.824.301 21.648.124 33.201-.066 1.496-.188 2.99-.188 4.486-.042 150.963-.074 301.926-.098 452.89 0 1.592.133 3.185.232 5.414 2.427-1.226 4.34-2.133 6.2-3.14 21.93-11.869 43.853-23.755 65.78-35.631 31.429-17.022 62.668-34.41 94.416-50.812 8.556-4.42 10.19-9.252 9.918-18.485-1.174-39.788-1.102-79.612-.837-119.26 36.666 20.541 73.356 41.042 109.954 61.703 2.939 1.659 4.98 1.97 8.055.185 42.234-24.521 84.575-48.859 126.861-73.29 16.086-9.293 32.1-18.71 48.86-28.188 35.168-19.848 70.312-39.737 105.54-59.478 3.261-1.828 4.069-4.028 4.04-7.57-.441-53.806-.743-107.612-1.071-161.419-.06-9.66-.094-19.32.148-29.68.207-1.797.59-3.594.594-5.391.113-42.13.111-84.26.374-126.388.028-4.386-1.246-6.76-5.076-8.96C549.87 270.65 500.85 242.213 451.76 213.9c-7.454-4.3-15.112-8.245-22.893-12.952-20.595-12.048-41.19-24.097-61.786-36.142-15.597-9.121-31.158-18.304-46.845-27.265-1.875-1.07-5.052-2.029-6.599-1.176-19.031 10.49-37.877 21.317-56.759 32.079-20.45 11.655-40.902 23.306-61.323 35.01-15.394 8.823-30.74 17.727-46.705 26.829z"/><path fill="#F3D252" d="M200.082 737.192c.382 39.81.31 79.634 1.484 119.422.272 9.233-1.362 14.065-9.918 18.485-31.748 16.402-62.987 33.79-94.415 50.812-21.928 11.876-43.85 23.762-65.782 35.631-1.86 1.007-3.772 1.914-6.2 3.14-.098-2.23-.23-3.822-.23-5.415.023-150.963.055-301.926.097-452.89 0-1.494.122-2.99.768-4.895 2.845-1.38 5.243-2.123 7.355-3.355 20.338-11.862 40.61-23.836 60.935-35.72 23.046-13.473 46.118-26.9 69.196-40.319 12.164-7.073 24.364-14.085 36.589-20.654-.038 44.785-.118 89.099-.47 133.744-.374 1.317-.564 2.303-.564 3.289.005 64.68.017 129.361.09 194.042.001 1.561.694 3.122 1.065 4.683z"/><path fill="#C6227E" d="M200.406 737.272c-.695-1.641-1.388-3.202-1.39-4.763-.072-64.68-.084-129.362-.089-194.042 0-.986.19-1.972.81-3.018 27.61 14.847 54.68 29.79 81.799 44.643 12.07 6.61 24.238 13.04 36.415 19.92.855 1.144 1.534 2.14 2.476 2.66a61639.58 61639.58 0 0 0 90.344 49.69c27.652 15.183 55.317 30.346 82.976 45.518-16.047 9.361-32.062 18.779-48.148 28.072-42.286 24.431-84.627 48.769-126.861 73.29-3.076 1.785-5.116 1.474-8.055-.185-36.598-20.661-73.288-41.162-110.277-61.785z"/><path fill="#0177BC" d="M429.084 201.547c7.564 4.11 15.222 8.055 22.676 12.354 49.09 28.313 98.11 56.749 147.248 84.976 3.83 2.2 5.104 4.575 5.076 8.96-.263 42.13-.261 84.26-.374 126.389-.005 1.797-.387 3.594-1.108 5.822-1.417.854-2.351 1.222-3.22 1.709-47.723 26.765-95.427 53.564-143.171 80.292-8.95 5.011-18.057 9.744-27.059 14.164.033-19.57.061-38.698.028-57.826-.045-25.447-.137-50.894-.166-76.811.052-66.99.061-133.51.07-200.03z"/><path fill="#FBA449" d="M199.92 400.963c-12.184 7.04-24.384 14.052-36.548 21.125a33788.771 33788.771 0 0 0-69.196 40.32C73.85 474.29 53.579 486.265 33.24 498.127c-2.112 1.232-4.51 1.975-7.185 2.99a617.76 617.76 0 0 1-.874-32.426c-.02-38.832.025-77.664.115-116.496.036-15.327.362-30.654.313-45.98-.01-3.334 1.294-5.226 3.969-6.777 37.18-21.548 74.34-43.133 111.507-64.705 2.58-1.497 5.176-2.967 8.209-4.23.956.632 1.427 1.11 1.983 1.45 31.174 19.121 62.374 38.202 93.53 57.352 23.503 14.446 46.953 28.98 70.223 43.782-22.086 13.148-43.978 25.973-65.85 38.83-16.434 9.66-32.842 19.362-49.262 29.046z"/><path fill="#4891D2" d="M315.234 332.779c-23.473-14.495-46.923-29.028-70.426-43.474-31.156-19.15-62.356-38.23-93.53-57.352-.556-.34-1.027-.818-1.684-1.568 15.22-9.203 30.567-18.107 45.96-26.93 20.422-11.704 40.874-23.355 61.324-35.01 18.882-10.762 37.728-21.589 56.76-32.08 1.546-.852 4.723.106 6.598 1.177 15.687 8.961 31.248 18.144 46.845 27.265 20.596 12.045 41.19 24.094 61.895 36.44.1 66.82.09 133.34-.295 200.228-12.005-6.714-23.641-13.784-35.26-20.884-26.067-15.93-52.125-31.874-78.187-47.812z"/><path fill="#E62482" d="M429.12 536.654c9.034-4.86 18.14-9.594 27.09-14.605 47.745-26.728 95.45-53.527 143.173-80.292.868-.487 1.802-.855 3.075-1.36.416 9.58.45 19.24.51 28.9.328 53.807.63 107.613 1.07 161.419.03 3.542-.778 5.742-4.04 7.57-35.227 19.74-70.371 39.63-105.895 59.536-28.015-15.114-55.68-30.277-83.332-45.46a61639.58 61639.58 0 0 1-90.344-49.69c-.942-.52-1.62-1.516-2.304-2.943 37.078-21.46 74.037-42.267 110.997-63.075z"/><path fill-opacity="0" d="M429.152 536.213c-36.992 21.25-73.951 42.057-111.083 63.148a1283.153 1283.153 0 0 1-36.533-19.269 16096.575 16096.575 0 0 1-81.526-44.974c-.167-44.585-.087-88.9-.05-133.684 16.379-10.155 32.787-19.856 49.22-29.517 21.873-12.857 43.765-25.682 65.851-38.83 26.265 15.63 52.323 31.575 78.39 47.504 11.619 7.1 23.255 14.17 35.216 21.354.406 25.548.498 50.995.543 76.442.033 19.128.005 38.257-.028 57.826z"/></svg>