<svg version="1.1" id="Layer_1" xmlns="http://www.w3.org/2000/svg" xmlns:xlink="http://www.w3.org/1999/xlink" x="0px" y="0px"
	 width="100%" viewBox="0 0 220 197" enable-background="new 0 0 220 197" xml:space="preserve">
<path fill="#FDFDFD" opacity="1.000000" stroke="none" 
	d="
M220.644379,100.898483 
	C221.000000,132.054474 220.963165,163.109085 221.061172,194.163239 
	C221.070236,197.036438 220.747528,198.273117 217.358414,198.101883 
	C210.567017,197.758759 203.746078,198.000000 196.468674,198.000000 
	C195.409012,195.747833 197.234558,194.721848 198.416779,193.446701 
	C200.566406,191.128098 202.813782,188.893997 205.113831,186.725159 
	C207.155624,184.799866 207.068878,183.071732 205.061722,181.248627 
	C204.323624,180.578201 203.649933,179.835602 202.943542,179.129211 
	C146.314972,122.500420 89.686882,65.871162 33.056660,9.244040 
	C28.007761,4.195417 27.980988,4.181546 22.946156,9.248598 
	C14.920517,17.325598 14.991495,15.732009 22.846933,23.652672 
	C28.709061,29.563471 34.638008,35.408028 40.486290,41.332451 
	C41.977695,42.843269 43.820465,44.221893 43.461208,47.098526 
	C39.917980,51.990871 35.383438,55.486668 31.634699,59.722969 
	C21.991302,70.620605 13.873794,82.582214 6.729992,95.253693 
	C4.398476,99.389275 4.723156,102.710747 7.133722,106.792694 
	C14.962596,120.049774 23.530369,132.819489 34.368820,143.706894 
	C52.524231,161.944336 73.084839,176.325760 99.410774,180.286041 
	C121.692711,183.637985 141.968887,178.156311 161.258942,166.451630 
	C162.079559,166.138382 162.571030,166.054642 163.444550,166.066376 
	C165.534729,166.430313 166.741425,167.580215 167.915085,168.745605 
	C176.245178,177.017059 184.538132,185.325790 192.820618,193.644882 
	C193.862915,194.691772 194.996201,195.709061 195.104568,197.654968 
	C131.705765,198.000000 68.411484,197.973618 5.117420,198.077881 
	C1.951635,198.083084 0.880494,197.789734 0.889427,194.121948 
	C1.043176,130.994659 1.027335,67.866837 0.918957,4.739353 
	C0.913560,1.595851 1.654669,0.917988 4.756267,0.922402 
	C75.545731,1.023162 146.335434,1.038740 217.124741,0.889560 
	C220.797867,0.881820 221.093124,1.958786 221.079651,5.120376 
	C220.947571,36.100693 221.000000,67.081802 221.000000,98.531342 
	C218.968170,99.312157 218.533173,97.587097 217.866547,96.373276 
	C207.422180,77.355721 194.181885,60.452648 177.811539,46.315735 
	C158.523544,29.659237 136.417389,19.001392 110.258255,19.358608 
	C100.064293,19.497812 90.144997,21.856531 80.510231,25.303915 
	C77.205856,26.486242 77.083229,27.991463 79.502098,30.194429 
	C79.870827,30.530251 80.258446,30.864645 80.551117,31.262529 
	C85.074356,37.411976 90.404350,38.990284 98.208801,36.975750 
	C120.947350,31.106342 140.809143,38.798550 159.054779,51.975712 
	C175.199493,63.635567 187.912308,78.499954 198.796494,95.044640 
	C200.870453,98.197189 200.880844,101.053223 198.851242,104.296661 
	C194.256073,111.640053 189.649841,118.942352 184.006927,125.566406 
	C180.074677,130.182388 180.249710,130.857834 184.396942,135.094101 
	C190.810791,141.645660 191.076004,141.858521 196.863434,134.647629 
	C204.052597,125.690231 210.584106,116.228836 216.064590,106.088593 
	C217.147202,104.085518 217.736206,101.644409 220.644379,100.898483 
z"/>
<path fill="#010101" opacity="1.000000" stroke="none" 
	d="
M195.250000,198.000000 
	C184.856216,187.718964 174.712433,177.437927 164.312195,166.930130 
	C163.748505,166.517197 163.438873,166.335037 162.877625,166.057449 
	C162.468491,165.878784 162.308578,165.799591 161.930099,165.569214 
	C161.577225,165.305450 161.442917,165.192871 160.935394,164.723282 
	C160.443314,164.246033 160.324493,164.125793 159.856445,163.648682 
	C159.507217,163.291794 159.162125,162.940186 158.819626,162.592743 
	C158.477127,162.245300 158.136078,161.901291 157.795898,161.559174 
	C157.455704,161.217041 157.115112,160.876083 156.773590,160.535095 
	C156.432053,160.194122 156.088074,159.852539 155.741043,159.509430 
	C155.394012,159.166306 155.042236,158.821060 154.684998,158.472961 
	C154.206024,158.007690 154.084320,157.890503 153.584335,157.421982 
	C153.071320,156.956528 152.936584,156.842392 152.353180,156.412521 
	C151.740906,155.996552 151.577271,155.896332 151.163269,155.639465 
	C150.396683,155.135773 149.934525,154.725723 149.292419,154.023392 
	C142.698593,146.811951 136.433090,139.735962 128.558456,133.847290 
	C127.933678,133.415070 127.644470,133.106171 127.291107,132.469162 
	C127.086456,132.024521 127.012939,131.847427 126.707733,131.173706 
	C126.381569,130.528336 126.287102,130.379593 125.867798,129.827698 
	C125.428040,129.298721 125.313126,129.172928 124.848099,128.680222 
	C124.380379,128.192902 124.262764,128.072510 123.790421,127.593437 
	C123.316261,127.115700 123.196846,126.996620 122.715073,126.520111 
	C122.229637,126.043159 122.106560,125.923653 121.602402,125.447380 
	C121.085922,124.975113 120.950531,124.859612 120.365059,124.425003 
	C119.750664,124.004868 119.586357,123.903824 119.170517,123.645081 
	C118.400589,123.138435 117.936363,122.726433 117.292450,122.021080 
	C108.745216,112.513489 99.836884,103.831467 90.490753,95.126083 
	C89.713470,94.545097 89.272598,94.087914 88.693314,93.354614 
	C88.291664,92.811844 88.063789,92.508247 87.639107,92.015076 
	C87.194427,91.570335 86.950203,91.310471 86.554871,90.837296 
	C86.292397,90.496277 86.192299,90.357971 85.790649,89.817360 
	C85.489090,89.415054 85.167351,89.036789 84.832336,88.674500 
	C84.497322,88.312210 84.155716,87.958488 83.811966,87.607712 
	C83.468208,87.256935 83.121826,86.908012 82.770493,86.562592 
	C82.419151,86.217171 82.048500,85.883698 81.627670,85.599190 
	C80.879631,85.167046 80.545395,85.037239 79.928787,84.827271 
	C79.270172,84.573257 78.927940,84.350082 78.411545,83.822281 
	C72.099373,75.112984 64.091423,68.489738 56.475166,61.036385 
	C55.740242,60.406204 55.363602,59.897655 54.832924,59.136665 
	C54.545876,58.747070 54.431236,58.594624 53.962849,58.014084 
	C53.489277,57.450916 53.369457,57.315845 52.888565,56.790459 
	C52.407001,56.273876 52.286518,56.147606 51.804955,55.650555 
	C51.323521,55.158535 51.203159,55.037296 50.720661,54.559196 
	C50.234825,54.087749 50.111126,53.973160 49.594311,53.539978 
	C49.062851,53.122787 48.924507,53.024193 48.578705,52.774914 
	C48.103287,52.409481 47.854725,52.174232 47.464264,51.719383 
	C47.201534,51.384007 47.100147,51.247692 46.682972,50.716240 
	C46.250923,50.199051 46.134666,50.077003 45.630722,49.624435 
	C45.100761,49.195316 44.958481,49.096729 44.597736,48.851681 
	C43.935848,48.396526 43.550224,48.030807 43.196854,47.307648 
	C43.472900,44.946438 41.597969,44.241405 40.520779,43.147682 
	C32.695976,35.202774 24.877913,27.246475 16.850519,19.508734 
	C14.442512,17.187614 13.837378,15.711850 16.680634,13.304835 
	C19.845514,10.625543 22.736977,7.587567 25.507860,4.491311 
	C27.312492,2.474770 28.660433,2.510720 30.249514,4.536226 
	C30.759172,5.185861 31.416636,5.719334 32.004860,6.307568 
	C89.914154,64.217781 147.799545,122.151970 205.798096,179.972656 
	C208.906982,183.072006 209.573410,185.004059 205.876907,187.995422 
	C202.403107,190.806580 199.413788,194.216431 196.105652,197.681427 
	C196.000000,198.000000 195.500000,198.000000 195.250000,198.000000 
z"/>
<path fill="#040404" opacity="1.000000" stroke="none" 
	d="
M221.000000,100.666672 
	C216.619720,105.405548 214.830566,111.421303 211.403015,116.449760 
	C205.874084,124.561142 200.355240,132.640121 193.940704,140.098587 
	C191.833725,142.548492 190.350388,143.600616 187.806839,140.592697 
	C185.026535,137.304794 180.140823,134.794067 179.246185,131.183121 
	C178.253799,127.177666 183.723434,124.429520 186.212738,121.027756 
	C190.539566,115.114922 194.508667,108.992371 198.378922,102.786140 
	C199.511765,100.969566 200.135925,99.428329 198.797150,97.367012 
	C184.371826,75.156334 167.126526,55.860809 143.067459,43.700642 
	C126.900108,35.529179 110.030373,34.013340 92.693237,39.373264 
	C89.442406,40.378284 87.099243,40.207447 84.787392,37.495407 
	C82.312416,34.592018 79.498260,31.960161 76.688705,29.365074 
	C74.388046,27.240026 74.540543,26.189291 77.591965,25.005226 
	C101.535759,15.714152 125.188736,15.754132 148.818558,26.315147 
	C173.478012,37.336346 191.738998,55.553425 207.129837,77.121162 
	C212.048706,84.014130 216.645218,91.117310 220.665710,98.884315 
	C221.000000,99.444443 221.000000,99.888893 221.000000,100.666672 
z"/>
<path fill="#040404" opacity="1.000000" stroke="none" 
	d="
M42.791168,47.085968 
	C43.572216,47.287457 44.010883,47.530437 44.679966,47.874298 
	C45.153839,48.209728 45.401653,48.439579 45.836906,48.840118 
	C46.019997,49.015503 45.998108,49.001762 45.991199,48.990837 
	C46.205139,49.217533 46.431633,49.449638 46.840092,49.843807 
	C47.016407,50.011383 46.998047,50.001854 46.993271,49.992680 
	C47.230408,50.231846 47.464867,50.487041 47.860428,50.946991 
	C48.122887,51.405659 48.281048,51.618710 48.681740,51.877609 
	C49.122528,52.196022 49.383110,52.423107 49.828972,52.831741 
	C50.016174,53.011082 49.998077,53.001877 49.993420,52.992855 
	C50.207912,53.220303 50.432903,53.451077 50.839031,53.842636 
	C51.014328,54.009106 50.998161,54.001835 50.994480,53.993771 
	C51.210049,54.222496 51.435226,54.453499 51.841724,54.845421 
	C52.017113,55.012119 51.998150,55.001984 51.992973,54.992561 
	C52.207493,55.219906 52.432945,55.451057 52.839706,55.843437 
	C53.015259,56.010284 52.997978,56.001751 52.993744,55.993095 
	C53.207188,56.219532 53.430740,56.448891 53.834938,56.837364 
	C54.009693,57.002205 53.998753,57.001221 53.998100,56.995758 
	C54.231583,57.249790 54.483643,57.490509 54.965561,57.866173 
	C55.438145,58.442181 55.698826,58.864452 55.959240,59.547089 
	C56.925941,62.189735 54.811123,62.998096 53.623119,64.181694 
	C44.282246,73.487953 35.634441,83.330063 28.455206,94.465515 
	C25.643797,98.826180 25.504276,102.176285 28.486660,106.658279 
	C38.627644,121.898407 50.182095,135.740952 65.005646,146.655487 
	C79.536110,157.354248 95.624878,163.451401 113.867798,162.672668 
	C123.252625,162.272064 132.278992,160.004074 140.887314,156.153458 
	C143.427597,155.017166 145.689957,153.032440 149.090424,153.556854 
	C150.012482,154.031891 150.604065,154.332016 151.484070,154.799454 
	C152.070358,155.175690 152.356735,155.399246 152.826172,155.828995 
	C153.022629,156.018127 152.997772,156.002380 152.989716,155.990082 
	C153.203964,156.216400 153.431778,156.449661 153.842148,156.846252 
	C154.019226,157.014938 153.997421,157.002335 153.991135,156.991425 
	C154.205551,157.217957 154.431885,157.449890 154.839996,157.843903 
	C155.016113,158.011444 154.997589,158.002411 154.993011,157.993164 
	C155.209045,158.221527 155.435410,158.453537 155.843613,158.847580 
	C156.019699,159.015213 155.997635,159.002533 155.991180,158.991577 
	C156.206970,159.219498 156.434845,159.452866 156.845398,159.849579 
	C157.022476,160.018417 156.997635,160.002319 156.989532,159.989944 
	C157.203903,160.216293 157.431854,160.449692 157.842438,160.846558 
	C158.019623,161.015335 157.997452,161.002335 157.990952,160.991241 
	C158.205368,161.217758 158.431915,161.449890 158.840332,161.844269 
	C159.016586,162.011963 158.997559,162.002441 158.992737,161.992950 
	C159.208878,162.221359 159.435562,162.453674 159.844284,162.848282 
	C160.020584,163.016174 159.997681,163.002533 159.990707,162.991150 
	C160.206207,163.218704 160.434235,163.452194 160.844971,163.849167 
	C161.022125,164.018082 160.997574,164.002289 160.989655,163.990036 
	C161.202393,164.214691 161.428497,164.446289 161.836121,164.839676 
	C162.012192,165.006790 161.998169,165.001953 161.997452,164.994568 
	C162.344482,165.365585 162.490204,165.810181 162.207977,166.613525 
	C153.152359,174.108444 142.615570,177.476791 131.805511,180.064407 
	C103.445885,186.852936 78.196106,179.131790 54.975986,162.949936 
	C32.951511,147.601349 16.948315,126.977058 3.956746,103.777145 
	C2.711602,101.553612 3.010795,99.780373 4.085779,97.730263 
	C14.053520,78.720795 26.457613,61.566593 42.791168,47.085968 
z"/>
<path fill="#060606" opacity="1.000000" stroke="none" 
	d="
M128.804840,68.070351 
	C141.239838,75.163765 147.410324,85.677200 148.181290,98.700310 
	C136.761810,87.260139 125.003502,75.480530 113.556374,64.012665 
	C118.128021,63.278599 123.281303,65.664108 128.804840,68.070351 
z"/>
<path fill="#262626" opacity="1.000000" stroke="none" 
	d="
M162.335449,166.983063 
	C161.976501,166.479507 161.970963,166.052948 161.981079,165.306793 
	C162.892975,164.937820 163.568527,165.284470 164.020569,166.399368 
	C163.600113,166.822281 163.144485,166.941177 162.335449,166.983063 
z"/>
<path fill="#FDFDFD" opacity="1.000000" stroke="none" 
	d="
M149.553070,153.421112 
	C141.149078,157.612228 132.805923,161.207687 123.722855,162.908875 
	C106.644241,166.107590 90.542740,163.103439 75.520943,154.906128 
	C53.412060,142.841461 37.894466,124.116089 24.735432,103.142151 
	C22.532333,99.630669 25.093433,97.406059 26.563284,95.083122 
	C34.696217,82.229858 44.347622,70.616676 55.820969,60.122276 
	C58.659714,59.973000 59.682968,62.393040 61.285080,63.934841 
	C66.554001,69.005417 71.698357,74.207558 76.807632,79.440132 
	C77.856979,80.514801 79.657959,81.193214 79.325333,83.604874 
	C79.758240,85.571838 78.982323,86.934723 78.512695,88.336472 
	C73.818291,102.348404 76.673927,115.026512 86.929741,125.223907 
	C97.189064,135.424805 109.892403,138.184097 123.870201,133.412598 
	C124.972923,133.036163 126.059731,132.594406 127.627823,132.704483 
	C128.740280,132.876587 129.446884,132.067551 130.232147,132.893295 
	C136.676849,139.670349 144.020981,145.581390 149.553070,153.421112 
z"/>
<path fill="#050505" opacity="1.000000" stroke="none" 
	d="
M128.008041,132.543213 
	C115.002289,139.883530 97.922295,137.497177 86.877045,127.066750 
	C74.898209,115.754723 71.849251,99.636475 79.053619,84.306496 
	C79.606789,83.991226 79.953194,83.984901 80.559456,83.977127 
	C81.098740,84.188705 81.370193,84.411453 81.824570,84.825470 
	C82.015457,85.007034 81.997620,85.002487 81.995239,84.993591 
	C82.210037,85.222275 82.434120,85.453156 82.840790,85.842789 
	C83.016464,86.008255 82.997498,86.002518 82.994553,85.993057 
	C83.209557,86.221832 83.434380,86.453392 83.842201,86.844391 
	C84.018333,87.010483 83.997543,87.002533 83.993454,86.992188 
	C84.208359,87.220650 84.434059,87.452942 84.843079,87.845535 
	C85.019699,88.012352 84.997551,88.002426 84.992508,87.991394 
	C85.207092,88.219376 85.433266,88.452011 85.842911,88.845398 
	C86.019821,89.012535 85.997528,89.002388 85.992409,88.991272 
	C86.223061,89.225319 86.454056,89.474915 86.853165,89.916458 
	C87.124863,90.382904 87.293930,90.609505 87.725845,90.879486 
	C88.168488,91.214218 88.415886,91.456039 88.841499,91.886642 
	C89.325325,92.625694 89.628036,93.178932 90.038040,94.028915 
	C91.742455,96.156876 91.276093,98.405655 91.344048,100.520294 
	C91.728500,112.483940 99.564407,120.297081 111.576485,120.646210 
	C113.394447,120.699051 115.242783,120.520493 117.275879,121.559311 
	C118.147232,122.097816 118.714523,122.383713 119.564560,122.817764 
	C120.115540,123.192108 120.381149,123.421349 120.833984,123.835915 
	C121.024277,124.017685 120.997116,124.002968 120.989609,123.989471 
	C121.204300,124.216629 121.432739,124.451218 121.845703,124.848648 
	C122.023994,125.017570 121.997009,125.002945 121.989609,124.989502 
	C122.204193,125.216522 122.432419,125.450905 122.845078,125.847916 
	C123.023262,126.016617 122.996872,126.003052 122.990028,125.989891 
	C123.204620,126.216919 123.432381,126.450935 123.844421,126.847107 
	C124.022354,127.015442 123.996796,127.003159 123.990585,126.990417 
	C124.205368,127.217659 124.432785,127.451401 124.844337,127.847000 
	C125.022057,128.015091 124.996819,128.003143 124.990776,127.990570 
	C125.205551,128.217865 125.432816,128.451477 125.844124,128.846771 
	C126.021736,129.014740 125.996765,129.003174 125.990936,128.990723 
	C126.205711,129.218002 126.432785,129.451431 126.843811,129.846405 
	C127.021324,130.014221 126.996666,130.003128 126.991135,129.990814 
	C127.235054,130.234543 127.475197,130.499069 127.869858,130.984146 
	C128.027130,131.555481 128.020630,131.914673 128.008041,132.543213 
z"/>
<path fill="#F9F9F9" opacity="1.000000" stroke="none" 
	d="
M117.680420,121.484535 
	C102.888229,122.857719 94.075233,117.848541 90.573715,106.513512 
	C89.416756,102.768227 89.748398,98.995430 90.149330,94.766113 
	C90.626053,94.281013 91.344482,94.007645 91.553276,94.224640 
	C100.241959,103.254723 109.858353,111.383240 117.680420,121.484535 
z"/>
<path fill="#252525" opacity="1.000000" stroke="none" 
	d="
M124.927254,127.774139 
	C124.748192,127.823189 124.474327,127.631279 124.092415,127.208527 
	C124.267059,127.162849 124.549751,127.348015 124.927254,127.774139 
z"/>
<path fill="#252525" opacity="1.000000" stroke="none" 
	d="
M121.924957,124.778595 
	C121.751068,124.823280 121.478149,124.628983 121.093658,124.205330 
	C121.263367,124.163849 121.544640,124.351730 121.924957,124.778595 
z"/>
<path fill="#252525" opacity="1.000000" stroke="none" 
	d="
M125.927452,128.773575 
	C125.747749,128.823181 125.473763,128.631638 125.092255,128.209030 
	C125.267548,128.162796 125.550362,128.347595 125.927452,128.773575 
z"/>
<path fill="#252525" opacity="1.000000" stroke="none" 
	d="
M126.927658,129.772827 
	C126.747200,129.823105 126.473076,129.631973 126.092026,129.209564 
	C126.268066,129.162659 126.551033,129.347061 126.927658,129.772827 
z"/>
<path fill="#252525" opacity="1.000000" stroke="none" 
	d="
M127.953110,130.921265 
	C127.760674,130.955490 127.487717,130.714676 127.100182,130.226166 
	C127.281265,130.201065 127.576935,130.423630 127.953110,130.921265 
z"/>
<path fill="#262626" opacity="1.000000" stroke="none" 
	d="
M152.902832,155.755402 
	C152.720764,155.814667 152.418884,155.611221 151.944748,155.187256 
	C152.109329,155.142059 152.446167,155.317368 152.902832,155.755402 
z"/>
<path fill="#262626" opacity="1.000000" stroke="none" 
	d="
M153.925476,156.773300 
	C153.744476,156.823853 153.469742,156.632767 153.088318,156.209717 
	C153.264999,156.162399 153.548370,156.347031 153.925476,156.773300 
z"/>
<path fill="#262626" opacity="1.000000" stroke="none" 
	d="
M154.930908,157.765320 
	C154.738205,157.825272 154.460297,157.639084 154.083618,157.216705 
	C154.271790,157.160065 154.558746,157.339630 154.930908,157.765320 
z"/>
<path fill="#262626" opacity="1.000000" stroke="none" 
	d="
M155.933990,158.769211 
	C155.741516,158.828995 155.463318,158.642776 155.086792,158.220245 
	C155.275070,158.163681 155.561691,158.343445 155.933990,158.769211 
z"/>
<path fill="#262626" opacity="1.000000" stroke="none" 
	d="
M156.928009,159.777039 
	C156.747513,159.827179 156.472534,159.635941 156.091125,159.212662 
	C156.267670,159.165619 156.550613,159.350632 156.928009,159.777039 
z"/>
<path fill="#262626" opacity="1.000000" stroke="none" 
	d="
M157.925476,160.773834 
	C157.744812,160.824066 157.470001,160.632797 157.088287,160.209564 
	C157.264725,160.162491 157.548019,160.347412 157.925476,160.773834 
z"/>
<path fill="#262626" opacity="1.000000" stroke="none" 
	d="
M158.930649,161.766113 
	C158.738785,161.825363 158.460983,161.638748 158.083832,161.216141 
	C158.271210,161.160187 158.557953,161.340225 158.930649,161.766113 
z"/>
<path fill="#262626" opacity="1.000000" stroke="none" 
	d="
M159.934158,162.770279 
	C159.742386,162.829391 159.464203,162.642609 159.086975,162.219635 
	C159.274536,162.163757 159.561127,162.344070 159.934158,162.770279 
z"/>
<path fill="#262626" opacity="1.000000" stroke="none" 
	d="
M160.925964,163.777863 
	C160.748123,163.825897 160.474121,163.633713 160.091919,163.210663 
	C160.265747,163.165741 160.547775,163.351685 160.925964,163.777863 
z"/>
<path fill="#262626" opacity="1.000000" stroke="none" 
	d="
M161.922363,164.764679 
	C161.737747,164.818680 161.463287,164.630569 161.085281,164.210114 
	C161.265335,164.159378 161.548920,164.340958 161.922363,164.764679 
z"/>
<path fill="#202020" opacity="1.000000" stroke="none" 
	d="
M82.923134,85.770340 
	C82.744804,85.820030 82.473152,85.631798 82.097183,85.214127 
	C82.271843,85.167267 82.550827,85.349854 82.923134,85.770340 
z"/>
<path fill="#222222" opacity="1.000000" stroke="none" 
	d="
M46.923004,49.771183 
	C46.741848,49.822392 46.467293,49.633396 46.088512,49.212158 
	C46.266060,49.163605 46.547829,49.347294 46.923004,49.771183 
z"/>
<path fill="#222222" opacity="1.000000" stroke="none" 
	d="
M47.943985,50.881065 
	C47.755043,50.920025 47.481113,50.695141 47.097839,50.226883 
	C47.278660,50.194744 47.568829,50.405983 47.943985,50.881065 
z"/>
<path fill="#222222" opacity="1.000000" stroke="none" 
	d="
M49.906509,52.759705 
	C49.727375,52.814568 49.438580,52.618050 49.004898,52.196342 
	C49.172291,52.150211 49.484566,52.329269 49.906509,52.759705 
z"/>
<path fill="#222222" opacity="1.000000" stroke="none" 
	d="
M50.924206,53.768314 
	C50.739971,53.822346 50.465611,53.635590 50.090004,53.216335 
	C50.270535,53.165066 50.552307,53.346294 50.924206,53.768314 
z"/>
<path fill="#222222" opacity="1.000000" stroke="none" 
	d="
M51.926552,54.771255 
	C51.742516,54.825054 51.467918,54.637989 51.092060,54.218315 
	C51.272530,54.167267 51.554256,54.348831 51.926552,54.771255 
z"/>
<path fill="#222222" opacity="1.000000" stroke="none" 
	d="
M52.919441,55.773228 
	C52.743793,55.820522 52.472328,55.630756 52.094330,55.212063 
	C52.266403,55.167480 52.545013,55.351826 52.919441,55.773228 
z"/>
<path fill="#222222" opacity="1.000000" stroke="none" 
	d="
M53.923828,56.760193 
	C53.734810,56.818581 53.459927,56.634960 53.087276,56.217888 
	C53.272327,56.162354 53.555145,56.340271 53.923828,56.760193 
z"/>
<path fill="#222222" opacity="1.000000" stroke="none" 
	d="
M55.044277,57.780350 
	C54.858185,57.845730 54.538914,57.671547 54.108543,57.243828 
	C54.301998,57.173794 54.606548,57.357288 55.044277,57.780350 
z"/>
<path fill="#202020" opacity="1.000000" stroke="none" 
	d="
M81.903091,84.750771 
	C81.721397,84.810844 81.427345,84.614662 80.976303,84.197083 
	C81.143120,84.148621 81.466927,84.321564 81.903091,84.750771 
z"/>
<path fill="#252525" opacity="1.000000" stroke="none" 
	d="
M123.926910,126.774597 
	C123.748451,126.823059 123.474548,126.630676 123.091919,126.207512 
	C123.265945,126.162407 123.548706,126.348076 123.926910,126.774597 
z"/>
<path fill="#202020" opacity="1.000000" stroke="none" 
	d="
M83.924088,86.772270 
	C83.746132,86.821396 83.473923,86.632301 83.096664,86.213409 
	C83.271019,86.167084 83.550430,86.350571 83.924088,86.772270 
z"/>
<path fill="#202020" opacity="1.000000" stroke="none" 
	d="
M84.921074,87.776413 
	C84.748840,87.820793 84.477982,87.629234 84.098244,87.209763 
	C84.267059,87.168053 84.544754,87.354263 84.921074,87.776413 
z"/>
<path fill="#202020" opacity="1.000000" stroke="none" 
	d="
M85.920647,88.776489 
	C85.748703,88.820526 85.477585,88.628510 85.096970,88.208427 
	C85.265472,88.167053 85.543472,88.353745 85.920647,88.776489 
z"/>
<path fill="#202020" opacity="1.000000" stroke="none" 
	d="
M86.933578,89.850327 
	C86.756134,89.886139 86.485512,89.668930 86.101089,89.215942 
	C86.271660,89.185875 86.556030,89.391594 86.933578,89.850327 
z"/>
<path fill="#202020" opacity="1.000000" stroke="none" 
	d="
M88.914268,91.822693 
	C88.747139,91.857185 88.471664,91.641899 88.056961,91.201218 
	C88.213791,91.174866 88.509857,91.373901 88.914268,91.822693 
z"/>
<path fill="#252525" opacity="1.000000" stroke="none" 
	d="
M120.909103,123.765396 
	C120.734360,123.815544 120.444435,123.613411 120.000916,123.188591 
	C120.162842,123.148308 120.478386,123.330711 120.909103,123.765396 
z"/>
<path fill="#222222" opacity="1.000000" stroke="none" 
	d="
M45.908249,48.774368 
	C45.740803,48.817406 45.461605,48.619305 45.046394,48.198196 
	C45.205753,48.161201 45.501129,48.347221 45.908249,48.774368 
z"/>
<path fill="#252525" opacity="1.000000" stroke="none" 
	d="
M122.924820,125.777496 
	C122.750412,125.822670 122.477554,125.628723 122.093460,125.205421 
	C122.263603,125.163498 122.544991,125.350937 122.924820,125.777496 
z"/>
</svg>