<svg id="Layer_1" data-name="Layer 1" class="fill-lightmodev2" xmlns="http://www.w3.org/2000/svg" viewBox="0 0 33.63 39.99">
  <path d="M178.15,305.38a13.53,13.53,0,0,1,6.25,3.73,8.57,8.57,0,0,1,2.15,5.88,12.13,12.13,0,0,1-1,5.09,8.45,8.45,0,0,1-3,3.56,13.71,13.71,0,0,1-4.71,2,30.64,30.64,0,0,1-6.9.64H152.92v-1.93a7.77,7.77,0,0,0,1.71-.63,2.14,2.14,0,0,0,.94-.94,4.11,4.11,0,0,0,.4-1.52c.06-.61.09-1.39.09-2.33V293.72c0-.92,0-1.69-.08-2.32a3.89,3.89,0,0,0-.38-1.52,2.32,2.32,0,0,0-.94-.95,6.75,6.75,0,0,0-1.74-.66v-1.94h19.19a35.39,35.39,0,0,1,5.36.33,15.09,15.09,0,0,1,4.78,1.52,7,7,0,0,1,2.84,2.75,8.46,8.46,0,0,1,1,4.25q0,6.63-8,9.93ZM169,303.85a10.2,10.2,0,0,0,4.6-.85,5.81,5.81,0,0,0,2.54-2.41,9.12,9.12,0,0,0,.86-4.32,6.91,6.91,0,0,0-.94-3.86,5.16,5.16,0,0,0-2.66-2,13,13,0,0,0-4.31-.62c-1.37,0-2.69.05-4,.15v13.94Zm-3.89,19c1.15.06,2.48.09,4,.09a13,13,0,0,0,4.59-.69,5.37,5.37,0,0,0,2.79-2.4,9.34,9.34,0,0,0,1-4.71,10.74,10.74,0,0,0-.53-3.61,5.66,5.66,0,0,0-1.58-2.44,6.5,6.5,0,0,0-2.52-1.34,13.07,13.07,0,0,0-3.66-.43h-4.07Z" transform="translate(-152.92 -286.33)" />
</svg>
