<svg id="Layer_1" data-name="Layer 1" xmlns="http://www.w3.org/2000/svg" viewBox="0 0 72.31 46.13">
  <g>
    <path d="M170.26,322.56a3.77,3.77,0,0,1-.36,3,4.18,4.18,0,0,1-2.26,1.8,3.5,3.5,0,0,1-2.92-.29l-17.06-9.29a3.42,3.42,0,0,1-1.52-1.44,4.09,4.09,0,0,1-.5-1.94,3.7,3.7,0,0,1,.43-2,3.45,3.45,0,0,1,1.51-1.44l17.07-9.29a3.56,3.56,0,0,1,2.95-.29,4,4,0,0,1,2.3,1.88,3.47,3.47,0,0,1,.33,2.88,3.85,3.85,0,0,1-2,2.3l-10.8,6,10.94,5.9A3.71,3.71,0,0,1,170.26,322.56Z" transform="translate(-145.63 -289.88)" style="fill: #231f20"/>
    <path d="M189.49,290.09a3.79,3.79,0,0,1,2.16,1.87,3.64,3.64,0,0,1,.29,2.81q-3.1,9.87-6.12,19.3t-6,19.29a4.29,4.29,0,0,1-1.91,2.2,3.22,3.22,0,0,1-2.77.25,3.67,3.67,0,0,1-2.2-1.83,4.16,4.16,0,0,1-.32-2.92l12.24-38.52a3.66,3.66,0,0,1,4.68-2.45Z" transform="translate(-145.63 -289.88)" style="fill: #231f20"/>
    <path d="M195.18,320.26l10.94-5.9-10.8-6a3.82,3.82,0,0,1-2-2.3,3.5,3.5,0,0,1,.32-2.88,4.07,4.07,0,0,1,2.31-1.88,3.56,3.56,0,0,1,2.95.29L216,310.9a3.42,3.42,0,0,1,1.52,1.44,3.79,3.79,0,0,1,.43,2,4,4,0,0,1-.51,1.94,3.4,3.4,0,0,1-1.51,1.44L198.85,327a3.51,3.51,0,0,1-2.92.29,4.2,4.2,0,0,1-2.27-1.8,3.85,3.85,0,0,1-.36-3A3.72,3.72,0,0,1,195.18,320.26Z" transform="translate(-145.63 -289.88)" style="fill: #231f20"/>
  </g>
</svg>
