<svg id="Layer_1" data-name="Layer 1" xmlns="http://www.w3.org/2000/svg" viewBox="0 0 19.39 39.99">
  <path d="M161.12,317.8a26.88,26.88,0,0,0-.49,2.74,15.55,15.55,0,0,0-.12,1.83,2.28,2.28,0,0,0,.66,1.86,4,4,0,0,0,2.21.66l-.32,1.43H151.34l.32-1.43a4.1,4.1,0,0,0,1.67-.57,3.3,3.3,0,0,0,.94-1.1,10.06,10.06,0,0,0,.7-1.71c.22-.68.54-2,1-3.92l5-22.55c.19-.9.35-1.77.47-2.6a16.69,16.69,0,0,0,.17-2.12,2.28,2.28,0,0,0-.7-1.92,4,4,0,0,0-2.17-.63l.32-1.44h11.72l-.32,1.44a5.55,5.55,0,0,0-1.6.53,2.81,2.81,0,0,0-.87.88,7.41,7.41,0,0,0-.8,1.83c-.26.83-.6,2.18-1,4.05Z" transform="translate(-151.34 -286.33)" style="fill: #231f20"/>
</svg>
