<svg id="Layer_1" data-name="Layer 1" xmlns="http://www.w3.org/2000/svg" viewBox="0 0 165.79 152.48">
  <path d="M181.65,282.55a12.72,12.72,0,0,0,.19,2.57,3.11,3.11,0,0,0,.67,1.4,3.21,3.21,0,0,0,1.4.85,11,11,0,0,0,2.28.47c.92.11,2.13.18,3.63.22v2.67H164.54v-2.67a39.23,39.23,0,0,0,4.64-.4,5.54,5.54,0,0,0,2.13-.74,2.89,2.89,0,0,0,1.07-1.41,9.45,9.45,0,0,0,.33-3V261.37a2.66,2.66,0,0,0-.45-1.73,1.56,1.56,0,0,0-1.24-.53,5.12,5.12,0,0,0-2.07.68,47,47,0,0,0-4.38,2.75l-1.79-3.1,15.3-9.17h3.75q-.18,2.8-.18,7.79Z" transform="translate(-161.32 -250.27)" style="fill: #231f20"/>
  <path d="M180.24,339.32a10.63,10.63,0,0,0,2.85-.28,2.8,2.8,0,0,0,1.47-1,5.59,5.59,0,0,0,.9-2.07h3.37l-.68,10.49H161.32v-1.93a35.24,35.24,0,0,1,3.56-6.13q2.33-3.3,5.67-7.23c2.11-2.48,3.71-4.52,4.82-6.13a22.15,22.15,0,0,0,2.47-4.54,12.16,12.16,0,0,0,.82-4.42,8,8,0,0,0-1.43-5.05,4.73,4.73,0,0,0-3.93-1.83,5.07,5.07,0,0,0-3.88,1.65,10.62,10.62,0,0,0-2.24,5.23H161.9v-6.91a59.36,59.36,0,0,1,5.6-2,33,33,0,0,1,4-.87,30.15,30.15,0,0,1,4.29-.29,18.16,18.16,0,0,1,7,1.16,8.19,8.19,0,0,1,3.94,3.13A8.66,8.66,0,0,1,188,315a10.59,10.59,0,0,1-.87,4.3,19.6,19.6,0,0,1-3,4.55,94,94,0,0,1-7.17,7.29q-2.25,2.21-4.22,4.44t-2.9,3.5v.29Z" transform="translate(-161.32 -250.27)" style="fill: #231f20"/>
  <path d="M162.43,371.92V365a34.63,34.63,0,0,1,13.45-3.16,18.89,18.89,0,0,1,6.37,1,9.32,9.32,0,0,1,4.28,2.92,7.32,7.32,0,0,1,1.51,4.64,9.31,9.31,0,0,1-1,4.38,10.2,10.2,0,0,1-2.8,3.3,24.71,24.71,0,0,1-4.67,2.75v.27a13.16,13.16,0,0,1,4.64,1.69A9.34,9.34,0,0,1,188.8,391a10.63,10.63,0,0,1-6.68,10.21,20,20,0,0,1-8.18,1.51,35.17,35.17,0,0,1-6.5-.61,24.42,24.42,0,0,1-5.57-1.68v-7.35h5.28a10.13,10.13,0,0,0,2.4,4.85,5.62,5.62,0,0,0,4.07,1.5q6.21,0,6.21-7.67c0-2.76-.72-4.81-2.18-6.15s-3.67-2-6.63-2H168.7v-3.34c3.4-.13,6-.93,7.74-2.38a9.24,9.24,0,0,0,1.31-11.22,4.59,4.59,0,0,0-3.83-1.66,5.7,5.7,0,0,0-2.66.63,5.63,5.63,0,0,0-2.16,2.2,11.81,11.81,0,0,0-1.4,4.08Z" transform="translate(-161.32 -250.27)" style="fill: #231f20"/>
  <line x1="165.79" y1="21.46" x2="33.71" y2="21.46" style="fill: #231f20;stroke: #231f20;stroke-miterlimit: 10;stroke-width: 14px"/>
  <line x1="165.79" y1="76.92" x2="33.71" y2="76.92" style="fill: #231f20;stroke: #231f20;stroke-miterlimit: 10;stroke-width: 14px"/>
  <line x1="165.79" y1="133.48" x2="33.71" y2="133.48" style="fill: #231f20;stroke: #231f20;stroke-miterlimit: 10;stroke-width: 14px"/>
</svg>
