<svg id="Layer_1" data-name="Layer 1" xmlns="http://www.w3.org/2000/svg" viewBox="0 0 79.1 62.73">
  <path d="M113.51,262.58l-2.23-3.68q18.94-10.12,18.94-18.94a5.22,5.22,0,0,0-1.56-3.73,23.1,23.1,0,0,0-5.57-3.73q-6.12-3.12-8.75-6.63a14.24,14.24,0,0,1-2.61-8.75,16.66,16.66,0,0,1,5-12.25,16.38,16.38,0,0,1,12-5,15.37,15.37,0,0,1,12.76,6.24q4.84,6.24,4.85,16.27a37.3,37.3,0,0,1-3.18,15.15,40.43,40.43,0,0,1-9.41,13.15Q126.55,257.34,113.51,262.58Zm44,0-2.23-3.68q18.94-10,18.94-18.94,0-3.78-7.13-7.46-6.34-3.34-8.86-6.69a14.11,14.11,0,0,1-2.51-8.69,17.31,17.31,0,0,1,17.16-17.27,15.27,15.27,0,0,1,12.65,6.24q4.85,6.24,4.84,16.27,0,16.48-12.47,28.3a49.36,49.36,0,0,1-8.3,6.29A95,95,0,0,1,157.52,262.58Z" transform="translate(-111.28 -199.85)" style="fill: #231f20"/>
</svg>
