<svg id="Layer_1" data-name="Layer 1" xmlns="http://www.w3.org/2000/svg" viewBox="0 0 35.48 39.83">
  <g>
    <path d="M174.66,303.33a26.89,26.89,0,0,0-.18-3.84,3.28,3.28,0,0,0-.73-1.69,4.13,4.13,0,0,0-2.08-1v-1.93h12.25v1.93a6.41,6.41,0,0,0-1.32.46,2.44,2.44,0,0,0-.79.57,2.27,2.27,0,0,0-.46.72,6.08,6.08,0,0,0-.26.85,7.91,7.91,0,0,0-.15,1.3c0,.57,0,1.45,0,2.64v11.19a18,18,0,0,1-.79,6,8.76,8.76,0,0,1-2.35,3.61,9.35,9.35,0,0,1-3.92,2,22,22,0,0,1-5.71.64,23,23,0,0,1-6.13-.7,10,10,0,0,1-4.07-2.12,8.67,8.67,0,0,1-2.3-3.52,16.54,16.54,0,0,1-.75-5.46V303.33a27.35,27.35,0,0,0-.17-3.84,3.37,3.37,0,0,0-.73-1.69,4.22,4.22,0,0,0-2.08-1v-1.93h14.56v1.93a6.41,6.41,0,0,0-1.32.46,2.44,2.44,0,0,0-.79.57,2.27,2.27,0,0,0-.46.72,6.08,6.08,0,0,0-.26.85,7.91,7.91,0,0,0-.15,1.3c0,.57,0,1.45,0,2.64v13a13.6,13.6,0,0,0,.47,4,4.44,4.44,0,0,0,1.7,2.42,5.77,5.77,0,0,0,3.42.88,6,6,0,0,0,3.42-.81,4.48,4.48,0,0,0,1.68-2.31,15.26,15.26,0,0,0,.53-4.67Z" transform="translate(-150.11 -294.86)" style="fill: #231f20"/>
    <path d="M150.11,334.69v-4.57h35.48v4.57Z" transform="translate(-150.11 -294.86)" style="fill: #231f20"/>
  </g>
</svg>
